# xmcd
#
# Track frame offsets:
#	150
#	16275
#	33375
#	52800
#	71100
#	86100
#	107250
#	123150
#	143175
#	160275
#	178350
#	195450
#	212325
#	226275
#	243825
#	262275
#	277575
#
# Disc length: 3721 seconds
#
# Revision: 3
# Processed by: cddbd v1.5.2PL0 Copyright (c) Steve Scherf et al.
# Submitted via: audiograbber 1.83.01
#
DISCID=e40e8711
DTITLE=Quik Hitz - QH-016 Karaoke Carrie Underwood 2008 Update
DYEAR=2008
DGENRE=Karaoke - Country
TTITLE0=Carrie Underwood - All American Girl (Karaoke)
TTITLE1=Carrie Underwood - So Small (Karaoke)
TTITLE2=Carrie Underwood - I Told You So (Karaoke)
TTITLE3=Carrie Underwood - Last Name (Karaoke)
TTITLE4=Carrie Underwood - Before He Cheats (Karaoke)
TTITLE5=Carrie Underwood - Just A Dream (Karaoke)
TTITLE6=Carrie Underwood - More Boys I Meet, The (Karaoke)
TTITLE7=Carrie Underwood - Wasted (Karaoke)
TTITLE8=Carrie Underwood - Jesus, Take The Wheel (Karaoke)
TTITLE9=Carrie Underwood - Don't Forget To Remember Me (Karaoke)
TTITLE10=Carrie Underwood - Inside Your Heaven (Karaoke)
TTITLE11=Carrie Underwood - Some Hearts (Karaoke)
TTITLE12=Carrie Underwood - Angels Brought Me Here (Karaoke)
TTITLE13=Carrie Underwood - We're Young and Beautifull (Karaoke)
TTITLE14=Carrie Underwood - Starts With Goodbye (Karaoke)
TTITLE15=Carrie Underwood - Independance Day (Karaoke)
TTITLE16=Data - Data Track
EXTD=
EXTT0=
EXTT1=
EXTT2=
EXTT3=
EXTT4=
EXTT5=
EXTT6=
EXTT7=
EXTT8=
EXTT9=
EXTT10=
EXTT11=
EXTT12=
EXTT13=
EXTT14=
EXTT15=
EXTT16=
PLAYORDER=
